<svg width="346" height="272" viewBox="0 0 346 272" fill="none" xmlns="http://www.w3.org/2000/svg">
<g clip-path="url(#clip0_842_3602)">
<path d="M170.031 61.7997H168.602V22.6556C168.602 16.6469 166.215 10.8844 161.966 6.63567C157.717 2.38693 151.955 7.49231e-06 145.946 1.43787e-10H63.014C60.0389 -1.05991e-05 57.0928 0.585983 54.3441 1.72452C51.5954 2.86306 49.0979 4.53184 46.9941 6.6356C44.8903 8.73936 43.2215 11.2369 42.083 13.9856C40.9444 16.7343 40.3584 19.6803 40.3584 22.6555V237.403C40.3584 240.378 40.9444 243.324 42.0829 246.073C43.2215 248.822 44.8903 251.319 46.994 253.423C49.0978 255.527 51.5953 257.196 54.344 258.334C57.0927 259.473 60.0387 260.059 63.0139 260.059H145.946C148.921 260.059 151.867 259.473 154.616 258.334C157.365 257.196 159.862 255.527 161.966 253.423C164.07 251.319 165.739 248.822 166.877 246.073C168.016 243.325 168.602 240.379 168.602 237.403V89.6631H170.031V61.7997Z" fill="#FF002E"/>
<path d="M146.689 6.43005H135.864C136.361 7.65057 136.551 8.97479 136.417 10.2861C136.282 11.5973 135.827 12.8554 135.092 13.9494C134.357 15.0435 133.364 15.9399 132.201 16.5598C131.037 17.1796 129.739 17.5039 128.421 17.504H80.9106C79.5924 17.5039 78.2945 17.1796 77.1312 16.5598C75.9679 15.9399 74.9749 15.0435 74.2397 13.9494C73.5044 12.8554 73.0495 11.5973 72.915 10.2861C72.7805 8.9748 72.9705 7.65058 73.4683 6.43005H63.3574C58.8702 6.43005 54.5668 8.21256 51.3939 11.3855C48.221 14.5584 46.4385 18.8618 46.4385 23.3489V237.782C46.4385 240.003 46.8761 242.203 47.7264 244.256C48.5766 246.309 49.8228 248.174 51.3939 249.745C52.965 251.316 54.8301 252.562 56.8828 253.413C58.9355 254.263 61.1356 254.701 63.3574 254.701H146.689C151.176 254.701 155.479 252.918 158.652 249.745C161.825 246.572 163.608 242.269 163.608 237.782V23.349C163.608 21.1271 163.17 18.9271 162.32 16.8744C161.47 14.8217 160.223 12.9566 158.652 11.3855C157.081 9.81442 155.216 8.56818 153.164 7.71792C151.111 6.86767 148.911 6.43005 146.689 6.43005ZM144.87 105.907C144.867 107.068 144.404 108.181 143.583 109.002C142.762 109.823 141.649 110.286 140.488 110.289H119.307C118.145 110.286 117.033 109.823 116.211 109.002C115.39 108.181 114.928 107.068 114.924 105.907V104.811C114.928 103.65 115.39 102.537 116.211 101.716C117.033 100.895 118.145 100.432 119.307 100.429H140.488C141.649 100.432 142.762 100.895 143.583 101.716C144.404 102.537 144.867 103.65 144.87 104.811V105.907ZM147.244 86.5514C147.241 87.7126 146.778 88.8253 145.957 89.6464C145.136 90.4675 144.023 90.9303 142.862 90.9337H66.9009C65.7397 90.9303 64.627 90.4675 63.8059 89.6464C62.9848 88.8253 62.522 87.7126 62.5186 86.5514V85.4558C62.522 84.2946 62.9848 83.1819 63.8059 82.3607C64.627 81.5396 65.7397 81.0768 66.9009 81.0734H142.862C144.023 81.0768 145.136 81.5396 145.957 82.3607C146.778 83.1819 147.241 84.2946 147.244 85.4558V86.5514ZM147.244 67.196C147.241 68.3572 146.778 69.4699 145.957 70.291C145.136 71.1121 144.023 71.575 142.862 71.5784H66.9009C65.7397 71.575 64.627 71.1122 63.8059 70.291C62.9848 69.4699 62.522 68.3572 62.5186 67.196V66.1004C62.522 64.9392 62.9848 63.8265 63.8059 63.0054C64.627 62.1843 65.7397 61.7215 66.9009 61.7181H142.862C144.023 61.7215 145.136 62.1843 145.957 63.0054C146.778 63.8265 147.241 64.9392 147.244 66.1004V67.196ZM147.244 47.8406C147.241 49.0019 146.778 50.1146 145.957 50.9357C145.136 51.7568 144.023 52.2196 142.862 52.223H66.9009C65.7397 52.2196 64.627 51.7568 63.8059 50.9357C62.9848 50.1146 62.522 49.0019 62.5186 47.8406V46.745C62.522 45.5838 62.9848 44.4711 63.8059 43.65C64.627 42.8289 65.7397 42.3661 66.9009 42.3627H142.862C144.023 42.3661 145.136 42.8289 145.957 43.65C146.778 44.4711 147.241 45.5838 147.244 46.745V47.8406Z" fill="white"/>
<path d="M68.5447 88.7426C69.9565 88.7426 71.101 87.598 71.101 86.1862C71.101 84.7743 69.9565 83.6298 68.5447 83.6298C67.1328 83.6298 65.9883 84.7743 65.9883 86.1862C65.9883 87.598 67.1328 88.7426 68.5447 88.7426Z" fill="white"/>
<path d="M76.9431 88.7426C78.3549 88.7426 79.4995 87.598 79.4995 86.1862C79.4995 84.7743 78.3549 83.6298 76.9431 83.6298C75.5312 83.6298 74.3867 84.7743 74.3867 86.1862C74.3867 87.598 75.5312 88.7426 76.9431 88.7426Z" fill="white"/>
<path d="M85.3435 88.7426C86.7553 88.7426 87.8998 87.598 87.8998 86.1862C87.8998 84.7743 86.7553 83.6298 85.3435 83.6298C83.9316 83.6298 82.7871 84.7743 82.7871 86.1862C82.7871 87.598 83.9316 88.7426 85.3435 88.7426Z" fill="white"/>
<path d="M93.7429 88.7426C95.1547 88.7426 96.2993 87.598 96.2993 86.1862C96.2993 84.7743 95.1547 83.6298 93.7429 83.6298C92.331 83.6298 91.1865 84.7743 91.1865 86.1862C91.1865 87.598 92.331 88.7426 93.7429 88.7426Z" fill="white"/>
<path d="M121.133 108.098C122.544 108.098 123.689 106.953 123.689 105.542C123.689 104.13 122.544 102.985 121.133 102.985C119.721 102.985 118.576 104.13 118.576 105.542C118.576 106.953 119.721 108.098 121.133 108.098Z" fill="white"/>
<path d="M129.532 108.098C130.944 108.098 132.088 106.953 132.088 105.542C132.088 104.13 130.944 102.985 129.532 102.985C128.12 102.985 126.976 104.13 126.976 105.542C126.976 106.953 128.12 108.098 129.532 108.098Z" fill="white"/>
<path d="M137.931 108.098C139.343 108.098 140.488 106.953 140.488 105.542C140.488 104.13 139.343 102.985 137.931 102.985C136.52 102.985 135.375 104.13 135.375 105.542C135.375 106.953 136.52 108.098 137.931 108.098Z" fill="white"/>
<path d="M147.831 138.664H61.2003C59.1651 138.664 57.2132 139.473 55.774 140.912C54.3349 142.351 53.5264 144.303 53.5264 146.338V188.546C53.5264 190.582 54.3349 192.534 55.774 193.973C57.2132 195.412 59.1651 196.22 61.2003 196.22H147.831C149.867 196.22 151.819 195.412 153.258 193.973C154.697 192.534 155.505 190.582 155.505 188.546V146.338C155.505 144.303 154.697 142.351 153.258 140.912C151.819 139.473 149.867 138.664 147.831 138.664ZM59.057 143.899C59.228 143.868 63.2846 143.178 66.6436 145.199C70.0025 147.22 71.293 151.127 71.3462 151.293L71.482 151.714L71.0461 151.791C70.4242 151.888 69.7955 151.934 69.1662 151.929C67.1696 151.967 65.1992 151.471 63.4592 150.491C60.1004 148.47 58.81 144.563 58.7569 144.398L58.6211 143.976L59.057 143.899ZM77.8623 183.087H62.4109C61.284 183.087 60.2032 182.639 59.4063 181.842C58.6095 181.045 58.1618 179.965 58.1618 178.838C58.1618 177.711 58.6095 176.63 59.4063 175.833C60.2032 175.036 61.284 174.588 62.4109 174.588H77.8623C78.9892 174.588 80.07 175.036 80.8669 175.833C81.6638 176.63 82.1114 177.711 82.1114 178.838C82.1114 179.965 81.6638 181.045 80.8669 181.842C80.07 182.639 78.9892 183.087 77.8623 183.087ZM148.166 182.314C148.162 183.542 147.673 184.719 146.804 185.588C145.936 186.456 144.759 186.946 143.531 186.95H131.942C130.714 186.946 129.537 186.456 128.668 185.588C127.8 184.719 127.31 183.542 127.307 182.314V175.361C127.31 174.133 127.8 172.956 128.668 172.087C129.537 171.219 130.714 170.729 131.942 170.726H143.531C144.759 170.729 145.936 171.219 146.804 172.087C147.673 172.956 148.162 174.133 148.166 175.361L148.166 182.314Z" fill="#FF002E"/>
<path d="M135.679 180.881H131.019C130.686 180.881 130.367 181.014 130.132 181.249C129.897 181.484 129.765 181.803 129.765 182.136C129.765 182.469 129.897 182.788 130.132 183.023C130.367 183.258 130.686 183.39 131.019 183.39H135.679C136.011 183.39 136.33 183.258 136.566 183.023C136.801 182.788 136.933 182.469 136.933 182.136C136.933 181.803 136.801 181.484 136.566 181.249C136.33 181.014 136.011 180.881 135.679 180.881Z" fill="#FF002E"/>
<path d="M144.28 180.881H139.621C139.288 180.881 138.969 181.014 138.734 181.249C138.498 181.484 138.366 181.803 138.366 182.136C138.366 182.469 138.498 182.788 138.734 183.023C138.969 183.258 139.288 183.39 139.621 183.39H144.28C144.613 183.39 144.932 183.258 145.167 183.023C145.402 182.788 145.535 182.469 145.535 182.136C145.535 181.803 145.402 181.484 145.167 181.249C144.932 181.014 144.613 180.881 144.28 180.881Z" fill="#FF002E"/>
<path d="M135.679 177.34H131.019C130.686 177.34 130.367 177.472 130.132 177.708C129.897 177.943 129.765 178.262 129.765 178.595C129.765 178.927 129.897 179.246 130.132 179.482C130.367 179.717 130.686 179.849 131.019 179.849H135.679C136.011 179.849 136.33 179.717 136.566 179.482C136.801 179.246 136.933 178.927 136.933 178.595C136.933 178.262 136.801 177.943 136.566 177.708C136.33 177.472 136.011 177.34 135.679 177.34Z" fill="#FF002E"/>
<path d="M144.279 177.34H139.62C139.287 177.34 138.968 177.472 138.733 177.708C138.497 177.943 138.365 178.262 138.365 178.595C138.365 178.927 138.497 179.246 138.733 179.482C138.968 179.717 139.287 179.849 139.62 179.849H144.279C144.612 179.849 144.931 179.717 145.166 179.482C145.401 179.246 145.534 178.927 145.534 178.595C145.534 178.262 145.401 177.943 145.166 177.708C144.931 177.472 144.612 177.34 144.279 177.34Z" fill="#FF002E"/>
<path d="M135.679 173.871H131.019C130.686 173.871 130.367 174.003 130.132 174.238C129.897 174.473 129.765 174.792 129.765 175.125C129.765 175.458 129.897 175.777 130.132 176.012C130.367 176.247 130.686 176.38 131.019 176.38H135.679C136.011 176.38 136.33 176.247 136.566 176.012C136.801 175.777 136.933 175.458 136.933 175.125C136.933 174.792 136.801 174.473 136.566 174.238C136.33 174.003 136.011 173.871 135.679 173.871Z" fill="#FF002E"/>
<path d="M144.279 173.871H139.62C139.287 173.871 138.968 174.003 138.733 174.238C138.497 174.473 138.365 174.792 138.365 175.125C138.365 175.458 138.497 175.777 138.733 176.012C138.968 176.247 139.287 176.38 139.62 176.38H144.279C144.612 176.38 144.931 176.247 145.166 176.012C145.401 175.777 145.534 175.458 145.534 175.125C145.534 174.792 145.401 174.473 145.166 174.238C144.931 174.003 144.612 173.871 144.279 173.871Z" fill="#FF002E"/>
<path d="M207.834 154.564H196.534V165.863H207.834V154.564Z" fill="#E6E6E6"/>
<path d="M183.217 161.424H201.781V179.988H183.217V161.424ZM200.973 162.231H184.024V179.181H200.973V162.231Z" fill="#FF002E"/>
<path d="M11.2997 61.3412H0V72.6409H11.2997V61.3412Z" fill="#E6E6E6"/>
<path d="M24.6165 65.7804H6.05273V47.2166H24.6165V65.7804ZM6.85986 64.9733H23.8094V48.0237H6.85986V64.9733Z" fill="#FF002E"/>
<path d="M263.557 266.922H258.609L256.256 247.838H263.558L263.557 266.922Z" fill="#FFB8B8"/>
<path d="M255.074 265.508H264.616V271.516H249.066C249.066 269.922 249.699 268.394 250.826 267.268C251.953 266.141 253.481 265.508 255.074 265.508Z" fill="#2F2E41"/>
<path d="M288.173 266.922H283.226L280.872 247.838H288.174L288.173 266.922Z" fill="#FFB8B8"/>
<path d="M279.691 265.508H289.233V271.516H273.684C273.684 269.922 274.317 268.394 275.443 267.268C276.57 266.141 278.098 265.508 279.691 265.508Z" fill="#2F2E41"/>
<path d="M238.737 198.674C238.381 198.15 238.144 197.554 238.043 196.928C237.943 196.302 237.98 195.662 238.154 195.053C238.328 194.443 238.633 193.879 239.048 193.4C239.463 192.921 239.978 192.539 240.557 192.281L257.375 145.925L265.651 150.441L246.448 194.741C246.817 195.742 246.807 196.844 246.418 197.837C246.03 198.831 245.29 199.648 244.34 200.133C243.389 200.618 242.294 200.737 241.261 200.468C240.228 200.199 239.33 199.561 238.737 198.674Z" fill="#FFB8B8"/>
<path d="M285.646 207.385C285.097 207.07 284.622 206.638 284.258 206.119C283.893 205.601 283.646 205.009 283.535 204.385C283.423 203.761 283.45 203.12 283.613 202.508C283.777 201.896 284.072 201.326 284.479 200.84L279.269 151.804L288.687 152.234L290.852 200.468C291.623 201.206 292.097 202.201 292.183 203.264C292.27 204.328 291.963 205.386 291.321 206.239C290.68 207.091 289.748 207.679 288.702 207.89C287.656 208.101 286.569 207.922 285.646 207.385Z" fill="#FFB8B8"/>
<path d="M270.621 137.339C276.095 137.339 280.533 132.901 280.533 127.427C280.533 121.953 276.095 117.515 270.621 117.515C265.147 117.515 260.709 121.953 260.709 127.427C260.709 132.901 265.147 137.339 270.621 137.339Z" fill="#FFB8B8"/>
<path d="M285.584 196.232H255.701L255.737 196C255.791 195.652 261.063 161.117 257.175 149.818C256.784 148.708 256.819 147.492 257.271 146.406C257.723 145.319 258.561 144.438 259.624 143.933C265.182 141.316 275.85 138.093 284.855 145.914C286.18 147.084 287.214 148.546 287.877 150.185C288.539 151.823 288.812 153.594 288.672 155.356L285.584 196.232Z" fill="#CCCCCC"/>
<path d="M261.44 166.22L247.986 163.491L254.292 148.547C254.67 147.1 255.606 145.861 256.895 145.103C258.185 144.345 259.722 144.129 261.17 144.503C262.619 144.877 263.86 145.81 264.621 147.097C265.382 148.385 265.602 149.922 265.231 151.371L261.44 166.22Z" fill="#CCCCCC"/>
<path d="M278.671 171.288L277.862 152.748C277.248 149.263 279.244 145.968 282.312 145.429C285.381 144.893 288.378 147.31 288.994 150.821L292.034 168.145L278.671 171.288Z" fill="#CCCCCC"/>
<path d="M284.589 194.013C289.397 212.325 289.922 235.608 288.624 261.004L282.167 260.197L270.464 211.769L264.007 261.004L256.743 260.6C254.573 233.953 252.46 211.077 255.936 196.031L284.589 194.013Z" fill="#2F2E41"/>
<path d="M277.152 135.087C275.303 137.057 271.869 135.999 271.628 133.309C271.609 133.1 271.61 132.889 271.632 132.681C271.756 131.489 272.445 130.407 272.28 129.148C272.243 128.835 272.126 128.536 271.941 128.281C270.467 126.308 267.008 129.163 265.618 127.377C264.765 126.282 265.767 124.557 265.113 123.333C264.249 121.718 261.691 122.515 260.087 121.63C258.302 120.645 258.409 117.907 259.584 116.241C261.017 114.21 263.529 113.126 266.01 112.97C268.491 112.813 270.955 113.484 273.271 114.387C275.903 115.412 278.512 116.83 280.132 119.144C282.101 121.958 282.291 125.741 281.306 129.032C280.707 131.033 278.662 133.479 277.152 135.087Z" fill="#2F2E41"/>
<path d="M345.094 272H191.337C191.23 272 191.127 271.957 191.052 271.882C190.976 271.806 190.934 271.703 190.934 271.596C190.934 271.489 190.976 271.387 191.052 271.311C191.127 271.235 191.23 271.193 191.337 271.193H345.094C345.201 271.193 345.303 271.235 345.379 271.311C345.455 271.387 345.497 271.489 345.497 271.596C345.497 271.703 345.455 271.806 345.379 271.882C345.303 271.957 345.201 272 345.094 272Z" fill="#FF002E"/>
</g>
<defs>
<clipPath id="clip0_842_3602">
<rect width="345.497" height="272" fill="white"/>
</clipPath>
</defs>
</svg>
