<svg width="517" height="917" viewBox="0 0 517 917" fill="none" xmlns="http://www.w3.org/2000/svg">
<path d="M1038.99 182.698C1038.99 99.0562 1013.18 34.3644 961.556 -11.3773C909.933 -57.119 841.647 -79.9898 756.698 -79.9898C684.818 -79.9898 623.067 -55.1586 571.444 -5.49622C519.822 44.1662 494.01 103.63 494.01 172.896C494.01 212.104 499.238 247.39 509.693 278.756C520.148 309.468 534.198 335.279 551.841 356.19C570.137 376.447 591.701 393.437 616.533 407.159C641.364 420.228 667.175 429.703 693.967 435.584C721.412 441.465 750.49 444.406 781.203 444.406C855.696 444.406 923.655 426.109 985.08 389.516V460.089C921.695 493.415 853.409 510.078 780.223 510.078C733.174 510.078 688.739 503.87 646.918 491.454C605.751 478.385 568.177 459.109 534.198 433.624C500.218 407.486 473.1 372.199 452.843 327.765C433.239 282.676 423.437 231.054 423.437 172.896C423.437 82.72 455.13 6.26599 518.515 -56.4655C581.9 -119.197 661.294 -150.563 756.698 -150.563C861.904 -150.563 946.853 -120.831 1011.54 -61.3664C1076.89 -2.55566 1109.56 78.7992 1109.56 182.698V878.625H1038.99V182.698ZM1250.71 182.698V878.625H1180.14V182.698C1180.14 59.1956 1140.6 -38.8223 1061.53 -111.356C982.466 -184.542 880.854 -221.136 756.698 -221.136C641.691 -221.136 545.633 -182.909 468.526 -106.455C391.418 -30.0007 352.864 63.1163 352.864 172.896C352.864 239.549 364.3 299.339 387.171 352.269C410.695 405.199 442.387 447.673 482.248 479.693C522.109 511.712 566.543 536.216 615.552 553.206C665.215 569.542 717.491 577.71 772.381 577.71C846.875 577.71 917.774 560.394 985.08 525.761V600.254C914.507 629.66 843.281 644.362 771.401 644.362C706.709 644.362 645.285 634.561 587.127 614.957C528.97 594.7 477.02 565.621 431.279 527.721C385.537 489.167 349.27 439.505 322.479 378.734C295.687 317.309 282.292 248.697 282.292 172.896C282.292 44.1662 327.707 -65.2871 418.536 -155.464C510.02 -246.293 622.74 -291.708 756.698 -291.708C850.795 -291.708 935.091 -272.432 1009.58 -233.878C1084.08 -195.978 1142.89 -140.761 1186.02 -68.2276C1229.14 4.3056 1250.71 87.9475 1250.71 182.698ZM1391.85 182.698V878.625H1321.28V182.698C1321.28 74.8785 1296.45 -20.5256 1246.79 -103.514C1197.78 -187.156 1130.47 -251.194 1044.87 -295.629C959.269 -340.064 863.211 -362.281 756.698 -362.281C655.413 -362.281 562.95 -338.104 479.308 -289.748C395.666 -242.046 329.994 -177.354 282.292 -95.6727C235.243 -13.9911 211.719 75.532 211.719 172.896C211.719 256.538 227.075 332.992 257.787 402.258C288.499 470.871 329.667 527.394 381.29 571.829C433.566 616.264 492.703 650.897 558.702 675.728C625.354 699.906 694.947 711.995 767.48 711.995C841.32 711.995 913.854 696.639 985.08 665.926V737.479C910.586 765.578 837.4 779.627 765.52 779.627C652.473 779.627 548.574 754.143 453.823 703.173C359.072 652.204 283.272 579.997 226.421 486.554C169.571 393.11 141.146 288.558 141.146 172.896C141.146 90.5614 156.829 12.147 188.194 -62.3466C220.214 -136.84 263.341 -201.205 317.578 -255.442C371.815 -309.678 437.16 -352.806 513.614 -384.825C590.068 -416.845 671.096 -432.854 756.698 -432.854C876.28 -432.854 984.1 -407.37 1080.16 -356.4C1176.87 -305.431 1253 -232.898 1308.54 -138.801C1364.08 -44.7034 1391.85 62.4629 1391.85 182.698ZM1533 182.698V878.625H1462.43V182.698C1462.43 49.3938 1431.39 -69.5345 1369.31 -174.087C1307.23 -279.293 1222.61 -360.321 1115.44 -417.171C1008.28 -474.675 888.696 -503.427 756.698 -503.427C629.928 -503.427 513.941 -473.042 408.735 -412.27C303.529 -351.499 220.867 -269.164 160.749 -165.265C100.632 -62.0198 70.5729 50.7007 70.5729 172.896C70.5729 253.271 83.3152 329.725 108.8 402.258C134.938 474.138 170.224 537.196 214.659 591.433C259.747 645.016 311.37 691.411 369.527 730.618C428.338 769.825 491.396 799.557 558.702 819.814C626.661 840.072 695.6 850.2 765.52 850.2C842.627 850.2 915.814 835.497 985.08 806.092V878.625C912.547 904.11 838.053 916.852 761.599 916.852C682.531 916.852 605.424 905.744 530.277 883.526C455.783 861.309 386.517 828.636 322.479 785.508C259.094 741.727 203.224 690.431 154.868 631.62C106.513 572.156 68.6125 502.89 41.1675 423.822C13.7225 344.754 0 261.112 0 172.896C0 71.6113 18.9501 -24.7731 56.8504 -116.256C95.4041 -208.393 147.68 -287.788 213.679 -354.44C280.331 -421.746 360.706 -475.002 454.803 -514.209C549.554 -554.07 650.185 -574 756.698 -574C865.171 -574 967.11 -555.703 1062.51 -519.11C1157.92 -482.517 1240.25 -431.547 1309.52 -366.202C1378.79 -301.51 1433.35 -221.789 1473.21 -127.038C1513.07 -32.2877 1533 70.9578 1533 182.698Z" fill="#34495E" fill-opacity="0.06"/>
</svg>